<svg xmlns="http://www.w3.org/2000/svg" viewBox="0 0 107.97 109.42"><defs><style>.cls-1{fill:#be1e2d;}.cls-1,.cls-2,.cls-3,.cls-4{stroke:#231f20;stroke-miterlimit:10;}.cls-2{fill:#808285;}.cls-3{fill:#fff;}.cls-4{fill:#d1d3d4;}</style></defs><g id="Layer_1" data-name="Layer 1"><circle class="cls-1" cx="54.75" cy="54.74" r="48.5"/><polygon class="cls-2" points="0.72 2.17 9.69 35.63 34.18 11.14 0.72 2.17"/><polygon class="cls-2" points="107.25 0.71 73.79 9.67 98.29 34.17 107.25 0.71"/><polygon class="cls-2" points="107.25 108.7 98.29 75.24 73.79 99.74 107.25 108.7"/><polygon class="cls-2" points="0.72 107.24 34.18 98.27 9.69 73.78 0.72 107.24"/><path class="cls-3" d="M110.4,96" transform="translate(-51.75 -55.16)"/><ellipse class="cls-2" cx="54.75" cy="54.74" rx="18.12" ry="18.88"/><circle class="cls-4" cx="54.75" cy="54.97" r="4.06"/><polygon class="cls-4" points="107.25 0.71 104.6 10.63 97.34 3.37 107.25 0.71"/><polygon class="cls-4" points="0.71 107.25 3.37 97.34 10.63 104.6 0.71 107.25"/><polygon class="cls-4" points="0.72 2.17 10.64 4.83 3.38 12.09 0.72 2.17"/><polygon class="cls-4" points="107.27 108.72 97.35 106.06 104.61 98.8 107.27 108.72"/></g></svg>